# xmcd
#
# Track frame offsets: 
#        150
#        18900
#        33452
#        51600
#        64950
#        85950
#        102600
#        118050
#        130500
#        146625
#        163350
#        176925
#        194700
#        210150
#
# Disc length: 2991 seconds
#
# Revision: 0
# Processed by: cddbd v1.5.2PL0 Copyright (c) Steve Scherf et al.
# Submitted via: ExactAudioCopy v1.3
#
DISCID=d90bad0e
DTITLE=Magic Girl - I'm Too Blue
DYEAR=1900
DGENRE=Blues
TTITLE0=The Hangman
TTITLE1=Widow
TTITLE2=Come What May
TTITLE3=Boxcar Girl
TTITLE4=I'm Too Blue
TTITLE5=Appaloosa (Mary)
TTITLE6=Where Every Man's A King
TTITLE7=So It Seems
TTITLE8=Magdalene
TTITLE9=Holler Down The Hall
TTITLE10=Say It Ain't So
TTITLE11=Ramblin' Woman
TTITLE12=Wild, Wild Hair (Delilah)
TTITLE13=Black Valentine
EXTD=
EXTT0=
EXTT1=
EXTT2=
EXTT3=
EXTT4=
EXTT5=
EXTT6=
EXTT7=
EXTT8=
EXTT9=
EXTT10=
EXTT11=
EXTT12=
EXTT13=
PLAYORDER=
